<?xml version="1.0" encoding="UTF-8" standalone="no"?>
<svg width="138px" height="61px" viewBox="0 0 138 61" version="1.1" xmlns="http://www.w3.org/2000/svg" xmlns:xlink="http://www.w3.org/1999/xlink">
    <!-- Generator: Sketch 39.1 (31720) - http://www.bohemiancoding.com/sketch -->
    <title>Computas Logo</title>
    <desc>Created with Sketch.</desc>
    <defs>
        <polygon id="path-1" points="117.161766 42.6233058 136.885188 42.6233058 136.885188 0.198297521 0 0.198297521 0 42.6233058 117.161766 42.6233058 117.161766 19.7632975 4.95328756e-06 19.7632975 4.95328756e-06 42.6446281 117.161766 42.6446281 117.161766 42.6233058"></polygon>
    </defs>
    <g id="Teaser" stroke="none" stroke-width="1" fill="none" fill-rule="evenodd">
        <g id="Desktop-HD" transform="translate(-27.000000, -29.000000)">
            <g id="Computas-Logo" transform="translate(27.000000, 29.000000)">
                <path d="M4.76464844,55.9628906 C4.76464844,55.7441395 4.65869247,55.5550138 4.44677734,55.3955078 C4.23486222,55.2360018 3.84179975,55.0947272 3.26757813,54.9716797 C2.39257375,54.7939444 1.73291238,54.5307635 1.28857422,54.1821289 C0.84423606,53.8334944 0.622070313,53.3584014 0.622070313,52.7568359 C0.622070313,52.1188119 0.889808521,51.5776389 1.42529297,51.1333008 C1.96077742,50.6889626 2.67740437,50.4667969 3.57519531,50.4667969 C4.5185594,50.4667969 5.2693657,50.6878233 5.82763672,51.1298828 C6.38590774,51.5719423 6.65364595,52.130205 6.63085938,52.8046875 L6.6171875,52.8457031 L4.68945313,52.8457031 C4.68945313,52.5494777 4.59489027,52.3079436 4.40576172,52.1210938 C4.21663317,51.9342439 3.93978047,51.8408203 3.57519531,51.8408203 C3.25162599,51.8408203 2.99755952,51.9194328 2.81298828,52.0766602 C2.62841705,52.2338875 2.53613281,52.4309884 2.53613281,52.6679688 C2.53613281,52.8958345 2.63297429,53.0826816 2.82666016,53.2285156 C3.02034602,53.3743497 3.4134085,53.5042312 4.00585938,53.6181641 C4.91732227,53.8004566 5.59407331,54.0681948 6.03613281,54.4213867 C6.47819231,54.7745786 6.69921875,55.2610646 6.69921875,55.8808594 C6.69921875,56.5462273 6.41439087,57.0896789 5.84472656,57.5112305 C5.27506226,57.9327821 4.52311665,58.1435547 3.58886719,58.1435547 C2.60448727,58.1435547 1.8263375,57.8940455 1.25439453,57.3950195 C0.682451567,56.8959936 0.410156113,56.3274771 0.4375,55.6894531 L0.451171875,55.6484375 L2.27636719,55.6484375 C2.29003913,56.0449239 2.41992064,56.3320304 2.66601563,56.5097656 C2.91211061,56.6875009 3.23339646,56.7763672 3.62988281,56.7763672 C3.99902528,56.7763672 4.28043523,56.7034513 4.47412109,56.5576172 C4.66780696,56.4117831 4.76464844,56.2135429 4.76464844,55.9628906 L4.76464844,55.9628906 Z M9.93261719,51.5400391 C10.1650402,51.2027978 10.4498681,50.9396168 10.7871094,50.7504883 C11.1243506,50.5613597 11.4980448,50.4667969 11.9082031,50.4667969 C12.6783893,50.4667969 13.2833637,50.723142 13.7231445,51.2358398 C14.1629254,51.7485377 14.3828125,52.5403592 14.3828125,53.6113281 L14.3828125,58 L12.3867188,58 L12.3867188,53.5976562 C12.3867188,53.0234346 12.28532,52.6167004 12.0825195,52.3774414 C11.879719,52.1381824 11.5778015,52.0185547 11.1767578,52.0185547 C10.9033189,52.0185547 10.6617849,52.0675451 10.4521484,52.1655273 C10.242512,52.2635096 10.0693366,52.4013663 9.93261719,52.5791016 L9.93261719,58 L7.93652344,58 L7.93652344,47.3359375 L9.93261719,47.3359375 L9.93261719,51.5400391 Z M20.2275391,58 C20.154622,57.8313794 20.0919599,57.6536468 20.0395508,57.4667969 C19.9871417,57.279947 19.9495444,57.0885426 19.9267578,56.8925781 C19.7216787,57.252606 19.4516618,57.5511056 19.1166992,57.7880859 C18.7817366,58.0250663 18.3818383,58.1435547 17.9169922,58.1435547 C17.1422487,58.1435547 16.5452495,57.9441752 16.1259766,57.5454102 C15.7067036,57.1466451 15.4970703,56.6031935 15.4970703,55.9150391 C15.4970703,55.1904261 15.7762016,54.6287455 16.3344727,54.2299805 C16.8927437,53.8312155 17.7073514,53.6318359 18.7783203,53.6318359 L19.8925781,53.6318359 L19.8925781,53.0439453 C19.8925781,52.6884748 19.7991546,52.4127614 19.6123047,52.2167969 C19.4254548,52.0208324 19.1497414,51.9228516 18.7851562,51.9228516 C18.4615869,51.9228516 18.2120777,52.0014641 18.0366211,52.1586914 C17.8611645,52.3159188 17.7734375,52.5335273 17.7734375,52.8115234 L15.8457031,52.8046875 L15.8388672,52.7636719 C15.806966,52.1393198 16.0781221,51.6004254 16.6523438,51.1469727 C17.2265654,50.6935199 17.9807896,50.4667969 18.9150391,50.4667969 C19.7991581,50.4667969 20.5169243,50.6912412 21.0683594,51.1401367 C21.6197944,51.5890322 21.8955078,52.228186 21.8955078,53.0576172 L21.8955078,56.1132812 C21.8955078,56.4596371 21.921712,56.7854802 21.9741211,57.0908203 C22.0265302,57.3961604 22.1097,57.6992172 22.2236328,58 L20.2275391,58 Z M18.4023438,56.6669922 C18.753257,56.6669922 19.0654283,56.5804045 19.3388672,56.4072266 C19.6123061,56.2340486 19.7968745,56.0335298 19.8925781,55.8056641 L19.8925781,54.7597656 L18.7783203,54.7597656 C18.3544901,54.7597656 18.0332042,54.8657216 17.8144531,55.0776367 C17.595702,55.2895518 17.4863281,55.5458969 17.4863281,55.8466797 C17.4863281,56.0927747 17.5683586,56.2910149 17.7324219,56.4414062 C17.8964852,56.5917976 18.1197903,56.6669922 18.4023438,56.6669922 L18.4023438,56.6669922 Z M27.2958984,52.3193359 L26.5644531,52.2988281 C26.2682277,52.2988281 26.024415,52.3603509 25.8330078,52.4833984 C25.6416006,52.6064459 25.4957687,52.7796213 25.3955078,53.0029297 L25.3955078,58 L23.40625,58 L23.40625,50.6035156 L25.2587891,50.6035156 L25.3476562,51.6972656 C25.5208342,51.3098939 25.7452786,51.0079763 26.0209961,50.7915039 C26.2967136,50.5750315 26.6145815,50.4667969 26.9746094,50.4667969 C27.0748703,50.4667969 27.1671545,50.4747721 27.2514648,50.4907227 C27.3357752,50.5066733 27.4212235,50.5260416 27.5078125,50.5488281 L27.2958984,52.3193359 Z M31.5820312,58.1435547 C30.5156197,58.1435547 29.6634146,57.8017612 29.0253906,57.1181641 C28.3873666,56.4345669 28.0683594,55.5664115 28.0683594,54.5136719 L28.0683594,54.2402344 C28.0683594,53.1419216 28.3702769,52.2373082 28.9741211,51.5263672 C29.5779653,50.8154261 30.3880158,50.4622396 31.4042969,50.4667969 C32.4023487,50.4667969 33.1770806,50.7675751 33.7285156,51.3691406 C34.2799507,51.9707061 34.5556641,52.7841746 34.5556641,53.8095703 L34.5556641,54.8964844 L30.1396484,54.8964844 L30.1259766,54.9375 C30.1624351,55.4251326 30.3253566,55.8261703 30.6147461,56.140625 C30.9041356,56.4550797 31.297198,56.6123047 31.7939453,56.6123047 C32.2360048,56.6123047 32.6028631,56.5678715 32.8945312,56.4790039 C33.1861994,56.3901363 33.5052066,56.250001 33.8515625,56.0585938 L34.3916016,57.2890625 C34.0908188,57.5351575 33.696617,57.7390942 33.2089844,57.9008789 C32.7213517,58.0626636 32.1790394,58.1435547 31.5820312,58.1435547 L31.5820312,58.1435547 Z M31.4042969,52.0048828 C31.0351544,52.0048828 30.7434907,52.1461574 30.5292969,52.4287109 C30.3151031,52.7112644 30.182943,53.08268 30.1328125,53.5429688 L30.1533203,53.5771484 L32.6005859,53.5771484 L32.6005859,53.3994141 C32.6005859,52.9755838 32.5014658,52.6372083 32.3032227,52.3842773 C32.1049795,52.1313464 31.8053405,52.0048828 31.4042969,52.0048828 L31.4042969,52.0048828 Z M41.8701172,54.8964844 L41.9521484,55.3066406 L41.9931641,55.3066406 L43.4082031,50.6035156 L45.5546875,50.6035156 L42.5537109,59.1074219 C42.3440745,59.6360704 42.0592466,60.0815412 41.6992188,60.4438477 C41.3391909,60.8061542 40.7991572,60.9873047 40.0791016,60.9873047 C39.9104809,60.9873047 39.7543952,60.9736329 39.6108398,60.9462891 C39.4672844,60.9189452 39.2929698,60.8802086 39.0878906,60.8300781 L39.3203125,59.3740234 C39.3795576,59.3831381 39.443359,59.3922526 39.5117188,59.4013672 C39.5800785,59.4104818 39.6416013,59.4150391 39.6962891,59.4150391 C40.0244157,59.4150391 40.2773429,59.3341479 40.4550781,59.1723633 C40.6328134,59.0105786 40.7695308,58.8089205 40.8652344,58.5673828 L41.0976562,57.9931641 L38.4726562,50.6035156 L40.6191406,50.6035156 L41.8701172,54.8964844 Z M45.9306641,54.2333984 C45.9306641,53.1305283 46.2382782,52.2270543 46.8535156,51.5229492 C47.4687531,50.8188441 48.3209581,50.4667969 49.4101562,50.4667969 C50.5039117,50.4667969 51.360674,50.8177048 51.9804688,51.5195312 C52.6002635,52.2213577 52.9101562,53.125971 52.9101562,54.2333984 L52.9101562,54.3769531 C52.9101562,55.4889379 52.6014028,56.3946905 51.9838867,57.0942383 C51.3663706,57.793786 50.5130263,58.1435547 49.4238281,58.1435547 C48.3300727,58.1435547 47.4744497,57.793786 46.8569336,57.0942383 C46.2394175,56.3946905 45.9306641,55.4889379 45.9306641,54.3769531 L45.9306641,54.2333984 Z M47.9199219,54.3769531 C47.9199219,55.0514357 48.0384103,55.5926086 48.2753906,56.0004883 C48.512371,56.4083679 48.8951796,56.6123047 49.4238281,56.6123047 C49.9388047,56.6123047 50.3159168,56.4072286 50.5551758,55.9970703 C50.7944348,55.586912 50.9140625,55.0468783 50.9140625,54.3769531 L50.9140625,54.2333984 C50.9140625,53.5771452 50.7932955,53.0416687 50.5517578,52.6269531 C50.3102201,52.2122375 49.9296901,52.0048828 49.4101562,52.0048828 C48.8951797,52.0048828 48.5180676,52.2133768 48.2788086,52.6303711 C48.0395496,53.0473654 47.9199219,53.5817025 47.9199219,54.2333984 L47.9199219,54.3769531 Z M58.6591797,56.9335938 C58.431314,57.3209655 58.1419288,57.6194651 57.7910156,57.8291016 C57.4401024,58.038738 57.0367861,58.1435547 56.5810547,58.1435547 C55.8017539,58.1435547 55.1922223,57.8940455 54.7524414,57.3950195 C54.3126606,56.8959936 54.0927734,56.1201225 54.0927734,55.0673828 L54.0927734,50.6035156 L56.0820312,50.6035156 L56.0820312,55.0810547 C56.0820312,55.6188178 56.1731762,56.0050444 56.3554688,56.2397461 C56.5377613,56.4744478 56.8066388,56.5917969 57.1621094,56.5917969 C57.4811214,56.5917969 57.7545562,56.5405279 57.9824219,56.4379883 C58.2102876,56.3354487 58.3971347,56.1839203 58.5429688,55.9833984 L58.5429688,50.6035156 L60.5390625,50.6035156 L60.5390625,58 L58.8369141,58 L58.6591797,56.9335938 Z M65.9326172,52.3193359 L65.2011719,52.2988281 C64.9049464,52.2988281 64.6611338,52.3603509 64.4697266,52.4833984 C64.2783194,52.6064459 64.1324875,52.7796213 64.0322266,53.0029297 L64.0322266,58 L62.0429688,58 L62.0429688,50.6035156 L63.8955078,50.6035156 L63.984375,51.6972656 C64.1575529,51.3098939 64.3819973,51.0079763 64.6577148,50.7915039 C64.9334324,50.5750315 65.2513003,50.4667969 65.6113281,50.4667969 C65.711589,50.4667969 65.8038733,50.4747721 65.8881836,50.4907227 C65.9724939,50.5066733 66.0579423,50.5260416 66.1445312,50.5488281 L65.9326172,52.3193359 Z M72.9736328,54.9033203 L72.4267578,54.9033203 L72.4267578,58 L70.4306641,58 L70.4306641,47.3359375 L72.4267578,47.3359375 L72.4267578,53.3857422 L72.9189453,53.3857422 L74.6347656,50.6035156 L76.9453125,50.6035156 L74.5800781,53.953125 L77.3076172,58 L75.0175781,58 L72.9736328,54.9033203 Z M79.7548828,50.6035156 L79.84375,51.6630859 C80.089845,51.2848288 80.3929018,50.9908865 80.7529297,50.78125 C81.1129575,50.5716135 81.5162738,50.4667969 81.9628906,50.4667969 C82.7102902,50.4667969 83.2936177,50.701495 83.7128906,51.1708984 C84.1321636,51.6403018 84.3417969,52.3762971 84.3417969,53.3789062 L84.3417969,58 L82.3388672,58 L82.3388672,53.3857422 C82.3388672,52.8889949 82.2386078,52.5369477 82.0380859,52.3295898 C81.8375641,52.122232 81.5345072,52.0185547 81.1289062,52.0185547 C80.864582,52.0185547 80.6276052,52.0721023 80.4179688,52.1791992 C80.2083323,52.2862961 80.0328783,52.4378245 79.8916016,52.6337891 L79.8916016,58 L77.8955078,58 L77.8955078,50.6035156 L79.7548828,50.6035156 Z M85.5244141,54.2333984 C85.5244141,53.1305283 85.8320282,52.2270543 86.4472656,51.5229492 C87.0625031,50.8188441 87.9147081,50.4667969 89.0039062,50.4667969 C90.0976617,50.4667969 90.954424,50.8177048 91.5742188,51.5195312 C92.1940135,52.2213577 92.5039062,53.125971 92.5039062,54.2333984 L92.5039062,54.3769531 C92.5039062,55.4889379 92.1951528,56.3946905 91.5776367,57.0942383 C90.9601206,57.793786 90.1067763,58.1435547 89.0175781,58.1435547 C87.9238227,58.1435547 87.0681997,57.793786 86.4506836,57.0942383 C85.8331675,56.3946905 85.5244141,55.4889379 85.5244141,54.3769531 L85.5244141,54.2333984 Z M87.5136719,54.3769531 C87.5136719,55.0514357 87.6321603,55.5926086 87.8691406,56.0004883 C88.106121,56.4083679 88.4889296,56.6123047 89.0175781,56.6123047 C89.5325547,56.6123047 89.9096668,56.4072286 90.1489258,55.9970703 C90.3881848,55.586912 90.5078125,55.0468783 90.5078125,54.3769531 L90.5078125,54.2333984 C90.5078125,53.5771452 90.3870455,53.0416687 90.1455078,52.6269531 C89.9039701,52.2122375 89.5234401,52.0048828 89.0039062,52.0048828 C88.4889297,52.0048828 88.1118176,52.2133768 87.8725586,52.6303711 C87.6332996,53.0473654 87.5136719,53.5817025 87.5136719,54.2333984 L87.5136719,54.3769531 Z M100.166992,55.3544922 L100.208008,55.3544922 L101.171875,50.6035156 L103.044922,50.6035156 L101.165039,58 L99.4970703,58 L98.1230469,53.5976562 L98.0820312,53.5976562 L96.7080078,58 L95.046875,58 L93.1669922,50.6035156 L95.0400391,50.6035156 L96.0175781,55.3408203 L96.0585938,55.3408203 L97.4394531,50.6035156 L98.7724609,50.6035156 L100.166992,55.3544922 Z M106.134766,58 L104.138672,58 L104.138672,47.3359375 L106.134766,47.3359375 L106.134766,58 Z M111.049805,58.1435547 C109.983393,58.1435547 109.131188,57.8017612 108.493164,57.1181641 C107.85514,56.4345669 107.536133,55.5664115 107.536133,54.5136719 L107.536133,54.2402344 C107.536133,53.1419216 107.83805,52.2373082 108.441895,51.5263672 C109.045739,50.8154261 109.855789,50.4622396 110.87207,50.4667969 C111.870122,50.4667969 112.644854,50.7675751 113.196289,51.3691406 C113.747724,51.9707061 114.023438,52.7841746 114.023438,53.8095703 L114.023438,54.8964844 L109.607422,54.8964844 L109.59375,54.9375 C109.630209,55.4251326 109.79313,55.8261703 110.08252,56.140625 C110.371909,56.4550797 110.764971,56.6123047 111.261719,56.6123047 C111.703778,56.6123047 112.070637,56.5678715 112.362305,56.4790039 C112.653973,56.3901363 112.97298,56.250001 113.319336,56.0585938 L113.859375,57.2890625 C113.558592,57.5351575 113.16439,57.7390942 112.676758,57.9008789 C112.189125,58.0626636 111.646813,58.1435547 111.049805,58.1435547 L111.049805,58.1435547 Z M110.87207,52.0048828 C110.502928,52.0048828 110.211264,52.1461574 109.99707,52.4287109 C109.782877,52.7112644 109.650716,53.08268 109.600586,53.5429688 L109.621094,53.5771484 L112.068359,53.5771484 L112.068359,53.3994141 C112.068359,52.9755838 111.969239,52.6372083 111.770996,52.3842773 C111.572753,52.1313464 111.273114,52.0048828 110.87207,52.0048828 L110.87207,52.0048828 Z M114.87793,54.3632812 C114.87793,53.1966087 115.129718,52.2555374 115.633301,51.5400391 C116.136884,50.8245407 116.846675,50.4667969 117.762695,50.4667969 C118.131838,50.4667969 118.464517,50.5465487 118.760742,50.7060547 C119.056968,50.8655607 119.316731,51.093423 119.540039,51.3896484 L119.540039,47.3359375 L121.542969,47.3359375 L121.542969,58 L119.827148,58 L119.663086,57.0976562 C119.430663,57.4394548 119.156089,57.6992179 118.839355,57.8769531 C118.522622,58.0546884 118.159182,58.1435547 117.749023,58.1435547 C116.842118,58.1435547 116.136884,57.8108757 115.633301,57.1455078 C115.129718,56.4801399 114.87793,55.6005914 114.87793,54.5068359 L114.87793,54.3632812 Z M116.867188,54.5068359 C116.867188,55.1539746 116.976561,55.6632468 117.195312,56.034668 C117.414064,56.4060891 117.769529,56.5917969 118.261719,56.5917969 C118.54883,56.5917969 118.799478,56.533692 119.013672,56.4174805 C119.227866,56.301269 119.40332,56.1315115 119.540039,55.9082031 L119.540039,52.7568359 C119.40332,52.5244129 119.229005,52.3432624 119.01709,52.2133789 C118.805175,52.0834954 118.557944,52.0185547 118.275391,52.0185547 C117.787758,52.0185547 117.431153,52.2350239 117.205566,52.6679688 C116.979979,53.1009136 116.867188,53.6660121 116.867188,54.3632812 L116.867188,54.5068359 Z M122.780273,54.3632812 C122.780273,53.1966087 123.03434,52.2555374 123.54248,51.5400391 C124.050621,50.8245407 124.762691,50.4667969 125.678711,50.4667969 C126.093427,50.4667969 126.458006,50.5602204 126.772461,50.7470703 C127.086916,50.9339202 127.355793,51.2005191 127.579102,51.546875 L127.736328,50.6035156 L129.458984,50.6035156 L129.458984,57.9658203 C129.458984,58.9274137 129.143395,59.6713841 128.512207,60.1977539 C127.881019,60.7241237 127.00261,60.9873047 125.876953,60.9873047 C125.503253,60.9873047 125.106773,60.9360357 124.6875,60.8334961 C124.268227,60.7309565 123.880861,60.5908212 123.525391,60.4130859 L123.894531,58.9228516 C124.199871,59.0686856 124.510903,59.1791988 124.827637,59.2543945 C125.14437,59.3295902 125.489581,59.3671875 125.863281,59.3671875 C126.410159,59.3671875 126.812336,59.2532563 127.069824,59.0253906 C127.327312,58.7975249 127.456055,58.4420597 127.456055,57.9589844 L127.456055,57.2890625 C127.237304,57.5670587 126.979819,57.7789706 126.683594,57.9248047 C126.387368,58.0706388 126.047853,58.1435547 125.665039,58.1435547 C124.758133,58.1435547 124.050621,57.8097364 123.54248,57.1420898 C123.03434,56.4744433 122.780273,55.5960341 122.780273,54.5068359 L122.780273,54.3632812 Z M124.776367,54.5068359 C124.776367,55.1539746 124.885741,55.6632468 125.104492,56.034668 C125.323243,56.4060891 125.678708,56.5917969 126.170898,56.5917969 C126.476239,56.5917969 126.734862,56.5359706 126.946777,56.4243164 C127.158692,56.3126622 127.32845,56.1497407 127.456055,55.9355469 L127.456055,52.7226562 C127.32845,52.4993478 127.158692,52.3261725 126.946777,52.203125 C126.734862,52.0800775 126.480796,52.0185547 126.18457,52.0185547 C125.696938,52.0185547 125.340333,52.2350239 125.114746,52.6679688 C124.889159,53.1009136 124.776367,53.6660121 124.776367,54.3632812 L124.776367,54.5068359 Z M134.264648,58.1435547 C133.198237,58.1435547 132.346032,57.8017612 131.708008,57.1181641 C131.069984,56.4345669 130.750977,55.5664115 130.750977,54.5136719 L130.750977,54.2402344 C130.750977,53.1419216 131.052894,52.2373082 131.656738,51.5263672 C132.260582,50.8154261 133.070633,50.4622396 134.086914,50.4667969 C135.084966,50.4667969 135.859698,50.7675751 136.411133,51.3691406 C136.962568,51.9707061 137.238281,52.7841746 137.238281,53.8095703 L137.238281,54.8964844 L132.822266,54.8964844 L132.808594,54.9375 C132.845052,55.4251326 133.007974,55.8261703 133.297363,56.140625 C133.586753,56.4550797 133.979815,56.6123047 134.476562,56.6123047 C134.918622,56.6123047 135.28548,56.5678715 135.577148,56.4790039 C135.868817,56.3901363 136.187824,56.250001 136.53418,56.0585938 L137.074219,57.2890625 C136.773436,57.5351575 136.379234,57.7390942 135.891602,57.9008789 C135.403969,58.0626636 134.861657,58.1435547 134.264648,58.1435547 L134.264648,58.1435547 Z M134.086914,52.0048828 C133.717772,52.0048828 133.426108,52.1461574 133.211914,52.4287109 C132.99772,52.7112644 132.86556,53.08268 132.81543,53.5429688 L132.835938,53.5771484 L135.283203,53.5771484 L135.283203,53.3994141 C135.283203,52.9755838 135.184083,52.6372083 134.98584,52.3842773 C134.787597,52.1313464 134.487958,52.0048828 134.086914,52.0048828 L134.086914,52.0048828 Z" id="share-your-knowledge" fill="rgb(135, 135, 136)"></path>
                <g id="Group-5">
                    <path d="M95.5946555,32.5513554 C94.5613445,32.1700413 93.9566427,31.3057769 94.4356144,29.5260744 C94.9896015,27.4919256 96.0479177,27.0342066 97.2826787,26.6276612 C98.4917301,26.2207603 99.7514961,26.3988017 99.9532982,26.3735702 L98.2652751,32.8310331 C98.2652751,32.8310331 96.6022571,32.9326694 95.5946555,32.5513554 L95.5946555,32.5513554 Z M97.8620231,23.4239835 C93.7548406,23.9072893 91.713928,27.6955537 91.3363856,29.2716281 C90.7316838,31.7123223 90.9331337,35.017281 94.5363393,35.5258182 L100.83517,35.5258182 L104.035123,23.4239835 L97.8620231,23.4239835 L97.8620231,23.4239835 Z M31.6226992,32.9834876 C32.1520334,30.9496942 31.9755887,31.6615041 32.2524062,30.5427934 C32.5295758,29.500843 33.2099974,28.2037355 31.2951671,28.1785041 C29.4306992,28.1785041 29.2288972,29.4749008 29.0778098,30.2126529 C28.9017172,30.9244628 27.6419512,35.5258182 27.6419512,35.5258182 C27.6419512,35.5258182 31.0433548,35.0684545 31.6226992,32.9834876 L31.6226992,32.9834876 Z M30.1111208,26.2719339 C30.1111208,26.2719339 32.1770386,23.5259752 35.2759152,23.4748017 C37.2161028,23.4495702 38.3247815,24.0345124 38.904126,24.7971405 C39.1309332,25.0512314 39.433108,25.4325455 39.4584653,25.661405 C40.6678689,24.4158264 42.3812494,23.5259752 44.0946298,23.5259752 C46.311635,23.5259752 48.5793548,24.644686 47.8235656,27.517157 L45.681928,35.5258182 C45.681928,35.5258182 42.9859512,34.6359669 43.3384884,33.2631653 L44.6236118,28.3309587 C44.9261388,27.1870165 44.4471671,26.2719339 43.2127584,26.2719339 C42.0033548,26.2719339 40.6678689,27.2634215 40.2649692,28.7375041 L38.8537635,33.8989256 C38.6269563,34.7631901 38.0979743,35.5258182 36.8635656,35.5258182 C35.6288046,35.5258182 35.4777172,34.7631901 35.7045244,33.8989256 L37.140383,28.3309587 C37.543635,26.8057025 36.2085013,26.2719339 34.9233779,26.2719339 L30.1111208,26.2719339 L30.1111208,26.2719339 Z M112.173064,23.5003884 C114.617229,23.5003884 117.161766,23.4748017 117.161766,23.4748017 C117.161766,23.4748017 116.330609,26.0938926 112.853486,26.119124 C111.1151,26.119124 110.333602,26.042719 109.855334,26.7545289 C108.166959,29.3476777 116.683147,26.2207603 115.373018,31.3818264 C114.466141,34.9156446 111.895895,35.5258182 109.502445,35.5258182 L104.715193,35.5258182 C104.715193,35.5258182 105.622069,32.8054463 108.948105,32.7546281 C110.862936,32.7293967 112.248784,32.7802149 112.550959,31.7631405 C112.702398,31.2546033 111.946257,30.9749256 111.241183,30.8732893 C109.300643,30.618843 105.748504,31.0005124 106.93255,26.9578017 C107.738702,24.2630165 110.006422,23.5259752 112.173064,23.5003884 L112.173064,23.5003884 Z M84.3317763,26.0174876 L80.527473,26.0174876 C80.527473,26.0174876 81.7118715,23.4748017 83.2234499,23.3223471 L85.0375553,23.3223471 L85.9697892,19.7632975 C85.9697892,19.7632975 89.0686658,20.1446116 88.5143265,22.2800413 L85.7936967,32.5005372 C85.6672622,32.9834876 85.8690643,33.2123471 86.4234036,33.2123471 L88.2121517,33.2123471 C88.2121517,33.2123471 86.5998483,35.3733636 84.5589357,35.5258182 C82.2408535,35.6782727 82.0136941,34.7123719 82.4926658,32.8310331 L84.3317763,26.0174876 L84.3317763,26.0174876 Z M77.1010643,31.1529669 C76.1938355,34.559562 72.9938817,35.5002314 70.3986298,35.5258182 C68.2319871,35.551405 64.9566658,34.0769669 65.7628175,31.1277355 L67.8287352,23.3987521 C67.8287352,23.3987521 71.154419,23.8820579 70.5497172,26.1702975 L69.3910283,30.4663884 C69.0381388,31.7631405 69.894653,32.449719 71.2554961,32.449719 C72.3641748,32.449719 73.749671,31.7631405 74.1782802,30.1614793 L75.2869589,26.0679504 C75.7148638,24.4666446 79.1666298,23.3987521 79.1666298,23.3987521 L77.1010643,31.1529669 L77.1010643,31.1529669 Z M13.6330848,29.5260744 C12.8015758,32.7038099 13.5827224,35.5258182 17.8910026,35.5258182 C22.2246401,35.5258182 24.517365,32.7038099 25.348874,29.5260744 C26.2561028,26.1443554 24.920617,23.5003884 21.0909563,23.5003884 C17.2609434,23.5003884 14.5399614,26.1443554 13.6330848,29.5260744 L13.6330848,29.5260744 Z M16.8076812,29.5260744 C17.3366632,27.4411074 18.6217866,25.8646777 20.4608972,25.8646777 C22.3003599,25.8646777 22.7539743,27.4411074 22.199635,29.5260744 C21.6703008,31.457876 20.4105347,33.1615289 18.5460668,33.1615289 C16.6312365,33.1615289 16.278347,31.457876 16.8076812,29.5260744 L16.8076812,29.5260744 Z M58.8589332,23.4748017 L52.9633548,23.4748017 L52.9633548,23.5003884 C52.3836581,25.1276364 53.1651568,26.2207603 55.7600566,26.2207603 L55.7854139,26.2207603 C59.4386298,26.2207603 59.8165244,27.873595 59.3882674,29.500843 C58.9600103,31.0260992 58.1788638,32.6021736 55.382162,32.6021736 L54.3241979,32.6021736 C54.7521028,30.9749256 54.6263728,31.5086942 54.9035424,30.441157 C55.1803599,29.3476777 55.8607815,28.0768678 53.9713085,28.051281 C52.1068406,28.0256942 51.9804062,29.4749008 51.8043136,30.1867107 C51.6532262,30.7208347 48.8818817,41.2970579 48.8818817,41.2970579 C48.6043599,42.3137769 49.1586992,42.6446281 50.1162905,42.6446281 C51.0485244,42.6446281 51.7793085,42.3393636 52.0564781,41.2970579 L53.5930617,35.475 C53.5930617,35.475 55.1553548,35.4494132 55.8607815,35.4494132 C59.1868175,35.3733636 61.5048997,32.6529917 62.3360566,29.5768926 C63.1675656,26.3735702 61.9331568,23.4748017 58.8589332,23.4748017 L58.8589332,23.4748017 Z M7.83787918,23.5003884 L12.6504884,23.5003884 C12.6504884,23.5003884 11.0124756,26.3479835 9.2994473,26.4240331 C5.77196144,26.6276612 4.18431105,26.8821074 3.37815938,29.7801653 C2.79881491,31.8139587 3.73104884,32.449719 7.08208997,32.6021736 C9.87879177,32.7293967 9.4505347,35.5258182 9.4505347,35.5258182 L4.43647558,35.5258182 C0.556452442,35.5258182 -0.602588689,33.1615289 0.279282776,29.8053967 C1.26187918,26.119124 3.95785604,23.5003884 7.83787918,23.5003884 L7.83787918,23.5003884 Z" id="Fill-1" fill="rgb(135, 135, 136)"></path>
                    <mask id="mask-2" fill="white">
                        <use xlink:href="#path-1"></use>
                    </mask>
                    <g id="Clip-2"></g>
                    <path d="M126.517211,3.87355372 C128.140784,3.47731405 132.358553,3.80852066 134.336072,3.65464463 C132.461743,1.42966116 129.790419,0.198297521 126.670411,0.198297521 C121.029111,0.198297521 116.455283,4.81280165 116.455283,10.5055041 C116.455283,13.9053471 118.087661,16.9196116 120.603319,18.7973967 C118.571915,15.4298926 121.243591,5.16142149 126.517211,3.87355372" id="Fill-4" fill="rgb(135, 135, 136)" mask="url(#mask-2)"></path>
                    <path d="M135.142576,4.87712397 C134.603028,6.20266116 133.064332,8.29544628 130.080972,8.34022314 C124.954566,8.41698347 122.687198,9.3334876 121.690866,12.2208843 C121.13864,13.8232562 121.502447,15.1793554 122.437851,15.5492975 C123.853635,16.1086529 127.076129,11.9266364 129.534028,14.2479256 C132.035951,16.6118595 126.717252,20.2650826 122.478352,19.9043802 C123.757841,20.486124 125.175386,20.8127107 126.670411,20.8127107 C132.312064,20.8127107 136.885188,16.1982066 136.885188,10.5055041 C136.885188,8.28158678 136.224488,6.81852066 135.142576,4.87712397" id="Fill-5" fill="rgb(135, 135, 136)" mask="url(#mask-2)"></path>
                </g>
            </g>
        </g>
    </g>
</svg>
