<?xml version="1.0" encoding="UTF-8" standalone="no"?>
<svg width="138px" height="61px" viewBox="0 0 138 61" version="1.1" xmlns="http://www.w3.org/2000/svg" xmlns:xlink="http://www.w3.org/1999/xlink">
    <!-- Generator: Sketch 39.1 (31720) - http://www.bohemiancoding.com/sketch -->
    <title>Computas Logo</title>
    <desc>Created with Sketch.</desc>
    <defs>
        <polygon id="path-1" points="117.161766 42.6233058 136.885188 42.6233058 136.885188 0.198297521 0 0.198297521 0 42.6233058 117.161766 42.6233058 117.161766 19.7632975 4.95328756e-06 19.7632975 4.95328756e-06 42.6446281 117.161766 42.6446281 117.161766 42.6233058"></polygon>
    </defs>
    <g id="Teaser" stroke="none" stroke-width="1" fill="none" fill-rule="evenodd">
        <g id="Desktop-HD" transform="translate(-27.000000, -29.000000)">
            <g id="Computas-Logo" transform="translate(27.000000, 29.000000)">
                <text id="share-your-knowledge" font-family="Roboto-Bold, Roboto" font-size="14" font-weight="bold" fill="#FFFFFF">
                    <tspan x="0" y="58">share your knowledge</tspan>
                </text>
                <g id="Group-5">
                    <path d="M95.5946555,32.5513554 C94.5613445,32.1700413 93.9566427,31.3057769 94.4356144,29.5260744 C94.9896015,27.4919256 96.0479177,27.0342066 97.2826787,26.6276612 C98.4917301,26.2207603 99.7514961,26.3988017 99.9532982,26.3735702 L98.2652751,32.8310331 C98.2652751,32.8310331 96.6022571,32.9326694 95.5946555,32.5513554 L95.5946555,32.5513554 Z M97.8620231,23.4239835 C93.7548406,23.9072893 91.713928,27.6955537 91.3363856,29.2716281 C90.7316838,31.7123223 90.9331337,35.017281 94.5363393,35.5258182 L100.83517,35.5258182 L104.035123,23.4239835 L97.8620231,23.4239835 L97.8620231,23.4239835 Z M31.6226992,32.9834876 C32.1520334,30.9496942 31.9755887,31.6615041 32.2524062,30.5427934 C32.5295758,29.500843 33.2099974,28.2037355 31.2951671,28.1785041 C29.4306992,28.1785041 29.2288972,29.4749008 29.0778098,30.2126529 C28.9017172,30.9244628 27.6419512,35.5258182 27.6419512,35.5258182 C27.6419512,35.5258182 31.0433548,35.0684545 31.6226992,32.9834876 L31.6226992,32.9834876 Z M30.1111208,26.2719339 C30.1111208,26.2719339 32.1770386,23.5259752 35.2759152,23.4748017 C37.2161028,23.4495702 38.3247815,24.0345124 38.904126,24.7971405 C39.1309332,25.0512314 39.433108,25.4325455 39.4584653,25.661405 C40.6678689,24.4158264 42.3812494,23.5259752 44.0946298,23.5259752 C46.311635,23.5259752 48.5793548,24.644686 47.8235656,27.517157 L45.681928,35.5258182 C45.681928,35.5258182 42.9859512,34.6359669 43.3384884,33.2631653 L44.6236118,28.3309587 C44.9261388,27.1870165 44.4471671,26.2719339 43.2127584,26.2719339 C42.0033548,26.2719339 40.6678689,27.2634215 40.2649692,28.7375041 L38.8537635,33.8989256 C38.6269563,34.7631901 38.0979743,35.5258182 36.8635656,35.5258182 C35.6288046,35.5258182 35.4777172,34.7631901 35.7045244,33.8989256 L37.140383,28.3309587 C37.543635,26.8057025 36.2085013,26.2719339 34.9233779,26.2719339 L30.1111208,26.2719339 L30.1111208,26.2719339 Z M112.173064,23.5003884 C114.617229,23.5003884 117.161766,23.4748017 117.161766,23.4748017 C117.161766,23.4748017 116.330609,26.0938926 112.853486,26.119124 C111.1151,26.119124 110.333602,26.042719 109.855334,26.7545289 C108.166959,29.3476777 116.683147,26.2207603 115.373018,31.3818264 C114.466141,34.9156446 111.895895,35.5258182 109.502445,35.5258182 L104.715193,35.5258182 C104.715193,35.5258182 105.622069,32.8054463 108.948105,32.7546281 C110.862936,32.7293967 112.248784,32.7802149 112.550959,31.7631405 C112.702398,31.2546033 111.946257,30.9749256 111.241183,30.8732893 C109.300643,30.618843 105.748504,31.0005124 106.93255,26.9578017 C107.738702,24.2630165 110.006422,23.5259752 112.173064,23.5003884 L112.173064,23.5003884 Z M84.3317763,26.0174876 L80.527473,26.0174876 C80.527473,26.0174876 81.7118715,23.4748017 83.2234499,23.3223471 L85.0375553,23.3223471 L85.9697892,19.7632975 C85.9697892,19.7632975 89.0686658,20.1446116 88.5143265,22.2800413 L85.7936967,32.5005372 C85.6672622,32.9834876 85.8690643,33.2123471 86.4234036,33.2123471 L88.2121517,33.2123471 C88.2121517,33.2123471 86.5998483,35.3733636 84.5589357,35.5258182 C82.2408535,35.6782727 82.0136941,34.7123719 82.4926658,32.8310331 L84.3317763,26.0174876 L84.3317763,26.0174876 Z M77.1010643,31.1529669 C76.1938355,34.559562 72.9938817,35.5002314 70.3986298,35.5258182 C68.2319871,35.551405 64.9566658,34.0769669 65.7628175,31.1277355 L67.8287352,23.3987521 C67.8287352,23.3987521 71.154419,23.8820579 70.5497172,26.1702975 L69.3910283,30.4663884 C69.0381388,31.7631405 69.894653,32.449719 71.2554961,32.449719 C72.3641748,32.449719 73.749671,31.7631405 74.1782802,30.1614793 L75.2869589,26.0679504 C75.7148638,24.4666446 79.1666298,23.3987521 79.1666298,23.3987521 L77.1010643,31.1529669 L77.1010643,31.1529669 Z M13.6330848,29.5260744 C12.8015758,32.7038099 13.5827224,35.5258182 17.8910026,35.5258182 C22.2246401,35.5258182 24.517365,32.7038099 25.348874,29.5260744 C26.2561028,26.1443554 24.920617,23.5003884 21.0909563,23.5003884 C17.2609434,23.5003884 14.5399614,26.1443554 13.6330848,29.5260744 L13.6330848,29.5260744 Z M16.8076812,29.5260744 C17.3366632,27.4411074 18.6217866,25.8646777 20.4608972,25.8646777 C22.3003599,25.8646777 22.7539743,27.4411074 22.199635,29.5260744 C21.6703008,31.457876 20.4105347,33.1615289 18.5460668,33.1615289 C16.6312365,33.1615289 16.278347,31.457876 16.8076812,29.5260744 L16.8076812,29.5260744 Z M58.8589332,23.4748017 L52.9633548,23.4748017 L52.9633548,23.5003884 C52.3836581,25.1276364 53.1651568,26.2207603 55.7600566,26.2207603 L55.7854139,26.2207603 C59.4386298,26.2207603 59.8165244,27.873595 59.3882674,29.500843 C58.9600103,31.0260992 58.1788638,32.6021736 55.382162,32.6021736 L54.3241979,32.6021736 C54.7521028,30.9749256 54.6263728,31.5086942 54.9035424,30.441157 C55.1803599,29.3476777 55.8607815,28.0768678 53.9713085,28.051281 C52.1068406,28.0256942 51.9804062,29.4749008 51.8043136,30.1867107 C51.6532262,30.7208347 48.8818817,41.2970579 48.8818817,41.2970579 C48.6043599,42.3137769 49.1586992,42.6446281 50.1162905,42.6446281 C51.0485244,42.6446281 51.7793085,42.3393636 52.0564781,41.2970579 L53.5930617,35.475 C53.5930617,35.475 55.1553548,35.4494132 55.8607815,35.4494132 C59.1868175,35.3733636 61.5048997,32.6529917 62.3360566,29.5768926 C63.1675656,26.3735702 61.9331568,23.4748017 58.8589332,23.4748017 L58.8589332,23.4748017 Z M7.83787918,23.5003884 L12.6504884,23.5003884 C12.6504884,23.5003884 11.0124756,26.3479835 9.2994473,26.4240331 C5.77196144,26.6276612 4.18431105,26.8821074 3.37815938,29.7801653 C2.79881491,31.8139587 3.73104884,32.449719 7.08208997,32.6021736 C9.87879177,32.7293967 9.4505347,35.5258182 9.4505347,35.5258182 L4.43647558,35.5258182 C0.556452442,35.5258182 -0.602588689,33.1615289 0.279282776,29.8053967 C1.26187918,26.119124 3.95785604,23.5003884 7.83787918,23.5003884 L7.83787918,23.5003884 Z" id="Fill-1" fill="#FFFFFF"></path>
                    <mask id="mask-2" fill="white">
                        <use xlink:href="#path-1"></use>
                    </mask>
                    <g id="Clip-2"></g>
                    <path d="M126.517211,3.87355372 C128.140784,3.47731405 132.358553,3.80852066 134.336072,3.65464463 C132.461743,1.42966116 129.790419,0.198297521 126.670411,0.198297521 C121.029111,0.198297521 116.455283,4.81280165 116.455283,10.5055041 C116.455283,13.9053471 118.087661,16.9196116 120.603319,18.7973967 C118.571915,15.4298926 121.243591,5.16142149 126.517211,3.87355372" id="Fill-4" fill="#FFFFFF" mask="url(#mask-2)"></path>
                    <path d="M135.142576,4.87712397 C134.603028,6.20266116 133.064332,8.29544628 130.080972,8.34022314 C124.954566,8.41698347 122.687198,9.3334876 121.690866,12.2208843 C121.13864,13.8232562 121.502447,15.1793554 122.437851,15.5492975 C123.853635,16.1086529 127.076129,11.9266364 129.534028,14.2479256 C132.035951,16.6118595 126.717252,20.2650826 122.478352,19.9043802 C123.757841,20.486124 125.175386,20.8127107 126.670411,20.8127107 C132.312064,20.8127107 136.885188,16.1982066 136.885188,10.5055041 C136.885188,8.28158678 136.224488,6.81852066 135.142576,4.87712397" id="Fill-5" fill="#FFFFFF" mask="url(#mask-2)"></path>
                </g>
            </g>
        </g>
    </g>
</svg>