<?xml version="1.0" encoding="UTF-8" standalone="no"?>
<svg width="652px" height="205px" viewBox="0 0 652 205" version="1.1" xmlns="http://www.w3.org/2000/svg" xmlns:xlink="http://www.w3.org/1999/xlink">
    <!-- Generator: Sketch 39.1 (31720) - http://www.bohemiancoding.com/sketch -->
    <title>Top</title>
    <desc>Created with Sketch.</desc>
    <defs></defs>
    <g id="Teaser" stroke="none" stroke-width="1" fill="none" fill-rule="evenodd">
        <g id="Desktop-HD" transform="translate(-394.000000, -171.000000)" fill="#FFFFFF">
            <g id="Header" transform="translate(0.000000, -364.000000)">
                <g id="HEADER" transform="translate(394.000000, 535.000000)">
                    <g id="Top">
                        <path d="M8.91601562,204 L0.373046875,204 L0.373046875,152.8125 L8.91601562,152.8125 L8.91601562,204 Z M60.4902344,183.011719 C60.4902344,189.269563 58.5273634,194.455058 54.6015625,198.568359 C50.6757616,202.681661 45.5840157,204.738281 39.3261719,204.738281 C33.1855162,204.738281 28.1992379,202.681661 24.3671875,198.568359 C20.5351371,194.455058 18.6191406,189.269563 18.6191406,183.011719 L18.6191406,173.800781 C18.6191406,167.566375 20.5351371,162.386739 24.3671875,158.261719 C28.1992379,154.136698 33.1737975,152.074219 39.2910156,152.074219 C45.5488594,152.074219 50.6464647,154.136698 54.5839844,158.261719 C58.5215041,162.386739 60.4902344,167.566375 60.4902344,173.800781 L60.4902344,183.011719 Z M51.9824219,173.730469 C51.9824219,169.464822 50.8398552,165.960951 48.5546875,163.21875 C46.2695198,160.476549 43.1816601,159.105469 39.2910156,159.105469 C35.5409969,159.105469 32.5761828,160.476549 30.3964844,163.21875 C28.216786,165.960951 27.1269531,169.464822 27.1269531,173.730469 L27.1269531,183.011719 C27.1269531,187.32424 28.216786,190.857408 30.3964844,193.611328 C32.5761828,196.365248 35.5527155,197.742188 39.3261719,197.742188 C43.2402539,197.742188 46.3281137,196.371107 48.5898438,193.628906 C50.8515738,190.886705 51.9824219,187.347678 51.9824219,183.011719 L51.9824219,173.730469 Z M103.697266,159.667969 L88.2285156,159.667969 L88.2285156,204 L79.6855469,204 L79.6855469,159.667969 L64.2167969,159.667969 L64.2167969,152.8125 L103.697266,152.8125 L103.697266,159.667969 Z M123.455078,182.941406 L106.931641,182.941406 L106.931641,181.042969 L123.455078,181.042969 L123.455078,182.941406 Z M167.611328,152.8125 L167.611328,187.511719 C167.611328,193.089872 165.994157,197.355454 162.759766,200.308594 C159.525374,203.261734 155.318385,204.738281 150.138672,204.738281 C144.912083,204.738281 140.687516,203.255874 137.464844,200.291016 C134.242171,197.326157 132.630859,193.066434 132.630859,187.511719 L132.630859,152.8125 L134.529297,152.8125 L134.529297,187.511719 C134.529297,192.31643 135.982407,196.072252 138.888672,198.779297 C141.794936,201.486342 145.544899,202.839844 150.138672,202.839844 C154.709007,202.839844 158.447251,201.486342 161.353516,198.779297 C164.25978,196.072252 165.712891,192.31643 165.712891,187.511719 L165.712891,152.8125 L167.611328,152.8125 Z M215.212891,154.710938 L196.580078,154.710938 L196.580078,204 L194.681641,204 L194.681641,154.710938 L176.048828,154.710938 L176.048828,152.8125 L215.212891,152.8125 L215.212891,154.710938 Z M252.302734,178.828125 L226.076172,178.828125 L226.076172,204 L224.177734,204 L224.177734,152.8125 L255.888672,152.8125 L255.888672,154.710938 L226.076172,154.710938 L226.076172,176.859375 L252.302734,176.859375 L252.302734,178.828125 Z M301.626953,182.238281 C301.626953,189.152378 299.916033,194.630839 296.494141,198.673828 C293.072249,202.716817 288.361358,204.738281 282.361328,204.738281 C276.337861,204.738281 271.609392,202.716817 268.175781,198.673828 C264.74217,194.630839 263.025391,189.152378 263.025391,182.238281 L263.025391,174.574219 C263.025391,167.683559 264.730452,162.210958 268.140625,158.15625 C271.550798,154.101542 276.267548,152.074219 282.291016,152.074219 C288.291046,152.074219 293.013655,154.101542 296.458984,158.15625 C299.904314,162.210958 301.626953,167.683559 301.626953,174.574219 L301.626953,182.238281 Z M299.728516,174.503906 C299.728516,168.222625 298.216812,163.230487 295.193359,159.527344 C292.169907,155.8242 287.869169,153.972656 282.291016,153.972656 C276.7363,153.972656 272.458999,155.8242 269.458984,159.527344 C266.458969,163.230487 264.958984,168.222625 264.958984,174.503906 L264.958984,182.238281 C264.958984,188.566438 266.464829,193.582013 269.476562,197.285156 C272.488296,200.9883 276.783175,202.839844 282.361328,202.839844 C287.939481,202.839844 292.228501,200.994159 295.228516,197.302734 C298.228531,193.61131 299.728516,188.589876 299.728516,182.238281 L299.728516,174.503906 Z M315.056641,179.988281 L315.056641,204.035156 L313.158203,204.035156 L313.158203,152.847656 L329.470703,152.847656 C334.861355,152.847656 339.009751,154.01366 341.916016,156.345703 C344.82228,158.677746 346.275391,162.082009 346.275391,166.558594 C346.275391,169.441421 345.355478,172.060535 343.515625,174.416016 C341.675772,176.771496 339.162125,178.300778 335.974609,179.003906 C339.654315,179.636722 342.291008,180.984365 343.884766,183.046875 C345.478524,185.109385 346.275391,187.746078 346.275391,190.957031 L346.275391,195.773438 C346.275391,197.367195 346.468748,198.796869 346.855469,200.0625 C347.242189,201.328131 347.880855,202.359371 348.771484,203.15625 L348.771484,204.035156 L346.908203,204.035156 C346.064449,203.074214 345.431643,201.884773 345.009766,200.466797 C344.587889,199.048821 344.376953,197.460946 344.376953,195.703125 L344.376953,191.027344 C344.376953,187.558576 343.187512,184.851572 340.808594,182.90625 C338.429676,180.960928 335.037131,179.988281 330.630859,179.988281 L315.056641,179.988281 Z M315.056641,178.089844 L329.119141,178.089844 C334.345729,178.089844 338.1953,176.988292 340.667969,174.785156 C343.140637,172.58202 344.376953,169.83986 344.376953,166.558594 C344.376953,162.738262 343.128919,159.814463 340.632812,157.787109 C338.136706,155.759755 334.41604,154.746094 329.470703,154.746094 L315.056641,154.746094 L315.056641,178.089844 Z M360.443359,204 L360.443359,152.8125 L374.611328,152.8125 C380.49417,152.8125 385.486308,154.921854 389.587891,159.140625 C393.689474,163.359396 395.740234,168.738249 395.740234,175.277344 L395.740234,181.535156 C395.740234,188.097689 393.689474,193.482401 389.587891,197.689453 C385.486308,201.896505 380.49417,204 374.611328,204 L360.443359,204 Z M362.341797,154.710938 L362.341797,202.101562 L374.611328,202.101562 C379.931667,202.101562 384.466778,200.156269 388.216797,196.265625 C391.966816,192.374981 393.841797,187.464873 393.841797,181.535156 L393.841797,175.171875 C393.841797,169.312471 391.966816,164.437519 388.216797,160.546875 C384.466778,156.656231 379.931667,154.710938 374.611328,154.710938 L362.341797,154.710938 Z M409.275391,179.988281 L409.275391,204.035156 L407.376953,204.035156 L407.376953,152.847656 L423.689453,152.847656 C429.080105,152.847656 433.228501,154.01366 436.134766,156.345703 C439.04103,158.677746 440.494141,162.082009 440.494141,166.558594 C440.494141,169.441421 439.574228,172.060535 437.734375,174.416016 C435.894522,176.771496 433.380875,178.300778 430.193359,179.003906 C433.873065,179.636722 436.509758,180.984365 438.103516,183.046875 C439.697274,185.109385 440.494141,187.746078 440.494141,190.957031 L440.494141,195.773438 C440.494141,197.367195 440.687498,198.796869 441.074219,200.0625 C441.460939,201.328131 442.099605,202.359371 442.990234,203.15625 L442.990234,204.035156 L441.126953,204.035156 C440.283199,203.074214 439.650393,201.884773 439.228516,200.466797 C438.806639,199.048821 438.595703,197.460946 438.595703,195.703125 L438.595703,191.027344 C438.595703,187.558576 437.406262,184.851572 435.027344,182.90625 C432.648426,180.960928 429.255881,179.988281 424.849609,179.988281 L409.275391,179.988281 Z M409.275391,178.089844 L423.337891,178.089844 C428.564479,178.089844 432.41405,176.988292 434.886719,174.785156 C437.359387,172.58202 438.595703,169.83986 438.595703,166.558594 C438.595703,162.738262 437.347669,159.814463 434.851562,157.787109 C432.355456,155.759755 428.63479,154.746094 423.689453,154.746094 L409.275391,154.746094 L409.275391,178.089844 Z M457.966797,204 L456.068359,204 L456.068359,152.8125 L457.966797,152.8125 L457.966797,204 Z M510.314453,204 L508.416016,204 L475.580078,156.328125 L475.369141,156.398438 L475.369141,204 L473.435547,204 L473.435547,152.8125 L475.369141,152.8125 L508.205078,200.378906 L508.416016,200.308594 L508.416016,152.8125 L510.314453,152.8125 L510.314453,204 Z M560.447266,198.515625 C559.369135,200.015632 557.300797,201.427728 554.242188,202.751953 C551.183578,204.076178 547.427757,204.738281 542.974609,204.738281 C537.115205,204.738281 532.363299,202.652365 528.71875,198.480469 C525.074201,194.308573 523.251953,188.882846 523.251953,182.203125 L523.251953,173.835938 C523.251953,167.41403 525.021467,162.181661 528.560547,158.138672 C532.099627,154.095683 536.70505,152.074219 542.376953,152.074219 C547.791043,152.074219 552.085922,153.474595 555.261719,156.275391 C558.437516,159.076186 560.060547,162.691384 560.130859,167.121094 L560.060547,167.332031 L558.478516,167.332031 C558.291015,163.371074 556.832045,160.154309 554.101562,157.681641 C551.37108,155.208972 547.462916,153.972656 542.376953,153.972656 C537.19724,153.972656 533.031266,155.818341 529.878906,159.509766 C526.726547,163.20119 525.150391,167.953096 525.150391,173.765625 L525.150391,182.203125 C525.150391,188.296905 526.779281,193.259746 530.037109,197.091797 C533.294938,200.923847 537.607395,202.839844 542.974609,202.839844 C546.748066,202.839844 550.046861,202.289068 552.871094,201.1875 C555.695327,200.085932 557.587886,198.90235 558.548828,197.636719 L558.548828,182.730469 L542.904297,182.730469 L542.904297,180.796875 L560.447266,180.796875 L560.447266,198.515625 Z M601.369141,178.265625 L575.705078,178.265625 L575.705078,202.101562 L604.955078,202.101562 L604.955078,204 L573.806641,204 L573.806641,152.8125 L604.955078,152.8125 L604.955078,154.710938 L575.705078,154.710938 L575.705078,176.367188 L601.369141,176.367188 L601.369141,178.265625 Z M651.677734,204 L649.779297,204 L616.943359,156.328125 L616.732422,156.398438 L616.732422,204 L614.798828,204 L614.798828,152.8125 L616.732422,152.8125 L649.568359,200.378906 L649.779297,200.308594 L649.779297,152.8125 L651.677734,152.8125 L651.677734,204 Z" id="IOT-UTFORDRINGEN"></path>
                        <g id="Logo" transform="translate(268.000000, 0.000000)">
                            <polygon id="I" points="0.0470424033 98.5700993 0.0470424033 29 14.7863654 29 14.7863654 98.5700993"></polygon>
                            <path d="M89.9745815,98.476375 L57.502055,98.476375 L24.842367,98.4763737 C24.842367,98.4763737 24.8423669,76.9535689 24.8423669,65.5584255 C24.8423669,54.1632821 24.8423668,29.3046243 24.8423668,29.3046243 C24.8423668,29.3046243 46.9897638,29.3046241 57.502056,29.3046241 C68.0143482,29.3046241 89.9745826,29.3046243 89.9745826,29.3046243 C89.9745826,29.3046243 89.9745816,54.2881599 89.9745816,65.6520837 L89.9745815,98.476375 Z M40.0492417,82.9320299 L74.7677067,82.9320299 L74.7677067,65.6520837 L74.7677067,42.5184974 L40.0492417,42.5184974 C40.0492417,42.5184974 40.0492417,58.0032889 40.0492417,65.6520837 L40.0492417,82.9320299 Z" id="O"></path>
                            <polygon id="T" points="117.97633 85.411624 100.479473 85.411624 100.479473 14.5739574 81.4446646 14.5739574 35.133838 14.5739574 35.133838 0 117.97633 0 117.97633 14.5739574"></polygon>
                        </g>
                    </g>
                </g>
            </g>
        </g>
    </g>
</svg>