<?xml version="1.0" encoding="UTF-8" standalone="no"?>
<svg width="649px" height="205px" viewBox="0 0 649 205" version="1.1" xmlns="http://www.w3.org/2000/svg" xmlns:xlink="http://www.w3.org/1999/xlink">
    <!-- Generator: Sketch 39.1 (31720) - http://www.bohemiancoding.com/sketch -->
    <title>Top</title>
    <desc>Created with Sketch.</desc>
    <defs></defs>
    <g id="Teaser" stroke="none" stroke-width="1" fill="none" fill-rule="evenodd">
        <g id="Desktop-HD" transform="translate(-395.000000, -171.000000)" fill="#FFFFFF">
            <g id="Header" transform="translate(0.000000, -364.000000)">
                <g id="HEADER" transform="translate(395.000000, 535.000000)">
                    <g id="Top">
                        <path d="M11.1152344,204 L0.849609375,204 L0.849609375,152.8125 L11.1152344,152.8125 L11.1152344,204 Z M62.5136719,183.011719 C62.5136719,189.293 60.5273636,194.484354 56.5546875,198.585938 C52.5820114,202.687521 47.4199536,204.738281 41.0683594,204.738281 C34.7636404,204.738281 29.6425978,202.687521 25.7050781,198.585938 C21.7675584,194.484354 19.7988281,189.293 19.7988281,183.011719 L19.7988281,173.800781 C19.7988281,167.542937 21.7616991,162.357442 25.6875,158.244141 C29.6133009,154.130839 34.7284841,152.074219 41.0332031,152.074219 C47.3847974,152.074219 52.5527145,154.130839 56.5371094,158.244141 C60.5215043,162.357442 62.5136719,167.542937 62.5136719,173.800781 L62.5136719,183.011719 Z M52.2480469,173.730469 C52.2480469,169.746074 51.2519631,166.476575 49.2597656,163.921875 C47.2675682,161.367175 44.5254081,160.089844 41.0332031,160.089844 C37.5409982,160.089844 34.833994,161.361315 32.9121094,163.904297 C30.9902248,166.447278 30.0292969,169.722636 30.0292969,173.730469 L30.0292969,183.011719 C30.0292969,187.066427 31.0019434,190.371081 32.9472656,192.925781 C34.8925879,195.480482 37.599592,196.757812 41.0683594,196.757812 C44.584002,196.757812 47.326162,195.480482 49.2949219,192.925781 C51.2636817,190.371081 52.2480469,187.066427 52.2480469,183.011719 L52.2480469,173.730469 Z M104.806641,160.722656 L90.3222656,160.722656 L90.3222656,204 L80.0566406,204 L80.0566406,160.722656 L65.6425781,160.722656 L65.6425781,152.8125 L104.806641,152.8125 L104.806641,160.722656 Z M164.466797,152.8125 L164.466797,187.511719 C164.466797,193.089872 162.849626,197.355454 159.615234,200.308594 C156.380843,203.261734 152.173854,204.738281 146.994141,204.738281 C141.767552,204.738281 137.542985,203.255874 134.320312,200.291016 C131.09764,197.326157 129.486328,193.066434 129.486328,187.511719 L129.486328,152.8125 L131.384766,152.8125 L131.384766,187.511719 C131.384766,192.31643 132.837876,196.072252 135.744141,198.779297 C138.650405,201.486342 142.400368,202.839844 146.994141,202.839844 C151.564476,202.839844 155.30272,201.486342 158.208984,198.779297 C161.115249,196.072252 162.568359,192.31643 162.568359,187.511719 L162.568359,152.8125 L164.466797,152.8125 Z M212.068359,154.710938 L193.435547,154.710938 L193.435547,204 L191.537109,204 L191.537109,154.710938 L172.904297,154.710938 L172.904297,152.8125 L212.068359,152.8125 L212.068359,154.710938 Z M249.158203,178.828125 L222.931641,178.828125 L222.931641,204 L221.033203,204 L221.033203,152.8125 L252.744141,152.8125 L252.744141,154.710938 L222.931641,154.710938 L222.931641,176.859375 L249.158203,176.859375 L249.158203,178.828125 Z M298.482422,182.238281 C298.482422,189.152378 296.771501,194.630839 293.349609,198.673828 C289.927717,202.716817 285.216827,204.738281 279.216797,204.738281 C273.193329,204.738281 268.464861,202.716817 265.03125,198.673828 C261.597639,194.630839 259.880859,189.152378 259.880859,182.238281 L259.880859,174.574219 C259.880859,167.683559 261.58592,162.210958 264.996094,158.15625 C268.406267,154.101542 273.123017,152.074219 279.146484,152.074219 C285.146514,152.074219 289.869123,154.101542 293.314453,158.15625 C296.759783,162.210958 298.482422,167.683559 298.482422,174.574219 L298.482422,182.238281 Z M296.583984,174.503906 C296.583984,168.222625 295.072281,163.230487 292.048828,159.527344 C289.025376,155.8242 284.724637,153.972656 279.146484,153.972656 C273.591769,153.972656 269.314468,155.8242 266.314453,159.527344 C263.314438,163.230487 261.814453,168.222625 261.814453,174.503906 L261.814453,182.238281 C261.814453,188.566438 263.320297,193.582013 266.332031,197.285156 C269.343765,200.9883 273.638644,202.839844 279.216797,202.839844 C284.79495,202.839844 289.083969,200.994159 292.083984,197.302734 C295.083999,193.61131 296.583984,188.589876 296.583984,182.238281 L296.583984,174.503906 Z M311.912109,179.988281 L311.912109,204.035156 L310.013672,204.035156 L310.013672,152.847656 L326.326172,152.847656 C331.716824,152.847656 335.86522,154.01366 338.771484,156.345703 C341.677749,158.677746 343.130859,162.082009 343.130859,166.558594 C343.130859,169.441421 342.210947,172.060535 340.371094,174.416016 C338.531241,176.771496 336.017594,178.300778 332.830078,179.003906 C336.509784,179.636722 339.146476,180.984365 340.740234,183.046875 C342.333992,185.109385 343.130859,187.746078 343.130859,190.957031 L343.130859,195.773438 C343.130859,197.367195 343.324217,198.796869 343.710938,200.0625 C344.097658,201.328131 344.736324,202.359371 345.626953,203.15625 L345.626953,204.035156 L343.763672,204.035156 C342.919918,203.074214 342.287111,201.884773 341.865234,200.466797 C341.443357,199.048821 341.232422,197.460946 341.232422,195.703125 L341.232422,191.027344 C341.232422,187.558576 340.042981,184.851572 337.664062,182.90625 C335.285144,180.960928 331.8926,179.988281 327.486328,179.988281 L311.912109,179.988281 Z M311.912109,178.089844 L325.974609,178.089844 C331.201198,178.089844 335.050769,176.988292 337.523438,174.785156 C339.996106,172.58202 341.232422,169.83986 341.232422,166.558594 C341.232422,162.738262 339.984387,159.814463 337.488281,157.787109 C334.992175,155.759755 331.271509,154.746094 326.326172,154.746094 L311.912109,154.746094 L311.912109,178.089844 Z M357.298828,204 L357.298828,152.8125 L371.466797,152.8125 C377.349639,152.8125 382.341776,154.921854 386.443359,159.140625 C390.544942,163.359396 392.595703,168.738249 392.595703,175.277344 L392.595703,181.535156 C392.595703,188.097689 390.544942,193.482401 386.443359,197.689453 C382.341776,201.896505 377.349639,204 371.466797,204 L357.298828,204 Z M359.197266,154.710938 L359.197266,202.101562 L371.466797,202.101562 C376.787136,202.101562 381.322247,200.156269 385.072266,196.265625 C388.822284,192.374981 390.697266,187.464873 390.697266,181.535156 L390.697266,175.171875 C390.697266,169.312471 388.822284,164.437519 385.072266,160.546875 C381.322247,156.656231 376.787136,154.710938 371.466797,154.710938 L359.197266,154.710938 Z M406.130859,179.988281 L406.130859,204.035156 L404.232422,204.035156 L404.232422,152.847656 L420.544922,152.847656 C425.935574,152.847656 430.08397,154.01366 432.990234,156.345703 C435.896499,158.677746 437.349609,162.082009 437.349609,166.558594 C437.349609,169.441421 436.429697,172.060535 434.589844,174.416016 C432.749991,176.771496 430.236344,178.300778 427.048828,179.003906 C430.728534,179.636722 433.365226,180.984365 434.958984,183.046875 C436.552742,185.109385 437.349609,187.746078 437.349609,190.957031 L437.349609,195.773438 C437.349609,197.367195 437.542967,198.796869 437.929688,200.0625 C438.316408,201.328131 438.955074,202.359371 439.845703,203.15625 L439.845703,204.035156 L437.982422,204.035156 C437.138668,203.074214 436.505861,201.884773 436.083984,200.466797 C435.662107,199.048821 435.451172,197.460946 435.451172,195.703125 L435.451172,191.027344 C435.451172,187.558576 434.261731,184.851572 431.882812,182.90625 C429.503894,180.960928 426.11135,179.988281 421.705078,179.988281 L406.130859,179.988281 Z M406.130859,178.089844 L420.193359,178.089844 C425.419948,178.089844 429.269519,176.988292 431.742188,174.785156 C434.214856,172.58202 435.451172,169.83986 435.451172,166.558594 C435.451172,162.738262 434.203137,159.814463 431.707031,157.787109 C429.210925,155.759755 425.490259,154.746094 420.544922,154.746094 L406.130859,154.746094 L406.130859,178.089844 Z M454.822266,204 L452.923828,204 L452.923828,152.8125 L454.822266,152.8125 L454.822266,204 Z M507.169922,204 L505.271484,204 L472.435547,156.328125 L472.224609,156.398438 L472.224609,204 L470.291016,204 L470.291016,152.8125 L472.224609,152.8125 L505.060547,200.378906 L505.271484,200.308594 L505.271484,152.8125 L507.169922,152.8125 L507.169922,204 Z M557.302734,198.515625 C556.224604,200.015632 554.156265,201.427728 551.097656,202.751953 C548.039047,204.076178 544.283225,204.738281 539.830078,204.738281 C533.970674,204.738281 529.218768,202.652365 525.574219,198.480469 C521.929669,194.308573 520.107422,188.882846 520.107422,182.203125 L520.107422,173.835938 C520.107422,167.41403 521.876935,162.181661 525.416016,158.138672 C528.955096,154.095683 533.560519,152.074219 539.232422,152.074219 C544.646511,152.074219 548.94139,153.474595 552.117188,156.275391 C555.292985,159.076186 556.916015,162.691384 556.986328,167.121094 L556.916016,167.332031 L555.333984,167.332031 C555.146483,163.371074 553.687514,160.154309 550.957031,157.681641 C548.226549,155.208972 544.318385,153.972656 539.232422,153.972656 C534.052708,153.972656 529.886735,155.818341 526.734375,159.509766 C523.582015,163.20119 522.005859,167.953096 522.005859,173.765625 L522.005859,182.203125 C522.005859,188.296905 523.634749,193.259746 526.892578,197.091797 C530.150407,200.923847 534.462864,202.839844 539.830078,202.839844 C543.603534,202.839844 546.90233,202.289068 549.726562,201.1875 C552.550795,200.085932 554.443355,198.90235 555.404297,197.636719 L555.404297,182.730469 L539.759766,182.730469 L539.759766,180.796875 L557.302734,180.796875 L557.302734,198.515625 Z M598.224609,178.265625 L572.560547,178.265625 L572.560547,202.101562 L601.810547,202.101562 L601.810547,204 L570.662109,204 L570.662109,152.8125 L601.810547,152.8125 L601.810547,154.710938 L572.560547,154.710938 L572.560547,176.367188 L598.224609,176.367188 L598.224609,178.265625 Z M648.533203,204 L646.634766,204 L613.798828,156.328125 L613.587891,156.398438 L613.587891,204 L611.654297,204 L611.654297,152.8125 L613.587891,152.8125 L646.423828,200.378906 L646.634766,200.308594 L646.634766,152.8125 L648.533203,152.8125 L648.533203,204 Z" id="IOT-UTFORDRINGEN"></path>
                        <g id="Logo" transform="translate(266.000000, 0.000000)">
                            <polygon id="I" points="0.0470424033 98.5700993 0.0470424033 29 14.7863654 29 14.7863654 98.5700993"></polygon>
                            <path d="M89.9745815,98.476375 L57.502055,98.476375 L24.842367,98.4763737 C24.842367,98.4763737 24.8423669,76.9535689 24.8423669,65.5584255 C24.8423669,54.1632821 24.8423668,29.3046243 24.8423668,29.3046243 C24.8423668,29.3046243 46.9897638,29.3046241 57.502056,29.3046241 C68.0143482,29.3046241 89.9745826,29.3046243 89.9745826,29.3046243 C89.9745826,29.3046243 89.9745816,54.2881599 89.9745816,65.6520837 L89.9745815,98.476375 Z M40.0492417,82.9320299 L74.7677067,82.9320299 L74.7677067,65.6520837 L74.7677067,42.5184974 L40.0492417,42.5184974 C40.0492417,42.5184974 40.0492417,58.0032889 40.0492417,65.6520837 L40.0492417,82.9320299 Z" id="O"></path>
                            <polygon id="T" points="117.97633 85.411624 100.479473 85.411624 100.479473 14.5739574 81.4446646 14.5739574 35.133838 14.5739574 35.133838 0 117.97633 0 117.97633 14.5739574"></polygon>
                        </g>
                    </g>
                </g>
            </g>
        </g>
    </g>
</svg>