<?xml version="1.0" encoding="UTF-8" standalone="no"?>
<svg width="118px" height="99px" viewBox="0 0 118 99" version="1.1" xmlns="http://www.w3.org/2000/svg" xmlns:xlink="http://www.w3.org/1999/xlink">
    <!-- Generator: Sketch 39.1 (31720) - http://www.bohemiancoding.com/sketch -->
    <title>Logo</title>
    <desc>Created with Sketch.</desc>
    <defs></defs>
    <g id="Teaser" stroke="none" stroke-width="1" fill="none" fill-rule="evenodd">
        <g id="Desktop-HD" transform="translate(-661.000000, -171.000000)" fill="#FFFFFF">
            <g id="Header" transform="translate(0.000000, -364.000000)">
                <g id="HEADER" transform="translate(390.000000, 535.000000)">
                    <g id="Top">
                        <g id="Logo" transform="translate(271.000000, 0.000000)">
                            <polygon id="I" points="0.0470424033 98.5700993 0.0470424033 29 14.7863654 29 14.7863654 98.5700993"></polygon>
                            <path d="M89.9745815,98.476375 L57.502055,98.476375 L24.842367,98.4763737 C24.842367,98.4763737 24.8423669,76.9535689 24.8423669,65.5584255 C24.8423669,54.1632821 24.8423668,29.3046243 24.8423668,29.3046243 C24.8423668,29.3046243 46.9897638,29.3046241 57.502056,29.3046241 C68.0143482,29.3046241 89.9745826,29.3046243 89.9745826,29.3046243 C89.9745826,29.3046243 89.9745816,54.2881599 89.9745816,65.6520837 L89.9745815,98.476375 Z M40.0492417,82.9320299 L74.7677067,82.9320299 L74.7677067,65.6520837 L74.7677067,42.5184974 L40.0492417,42.5184974 C40.0492417,42.5184974 40.0492417,58.0032889 40.0492417,65.6520837 L40.0492417,82.9320299 Z" id="O"></path>
                            <polygon id="T" points="117.97633 85.411624 100.479473 85.411624 100.479473 14.5739574 81.4446646 14.5739574 35.133838 14.5739574 35.133838 0 117.97633 0 117.97633 14.5739574"></polygon>
                        </g>
                    </g>
                </g>
            </g>
        </g>
    </g>
</svg>